<svg width="18" height="19" viewBox="0 0 18 19" fill="none" xmlns="http://www.w3.org/2000/svg">
<path d="M8.98836 9.17207e-05C8.78966 0.00319172 8.60026 0.0850616 8.46176 0.227702C8.32336 0.370332 8.24726 0.562092 8.25006 0.760832V11.4502L6.53035 9.73054C6.46044 9.65854 6.3768 9.60134 6.28437 9.56224C6.19194 9.52314 6.09261 9.50304 5.99226 9.50304C5.843 9.50304 5.69715 9.54764 5.57336 9.63104C5.44957 9.71444 5.35348 9.83284 5.29737 9.97114C5.24127 10.1094 5.22771 10.2614 5.25843 10.4074C5.28914 10.5535 5.36274 10.6871 5.4698 10.7911L8.46976 13.7911C8.61046 13.9317 8.80116 14.0106 9.00006 14.0106C9.19896 14.0106 9.38966 13.9317 9.53036 13.7911L12.5304 10.7911C12.6024 10.722 12.6598 10.6392 12.6994 10.5476C12.739 10.456 12.7599 10.3574 12.7609 10.2576C12.762 10.1579 12.743 10.0589 12.7053 9.96654C12.6676 9.87414 12.6118 9.79024 12.5413 9.71964C12.4707 9.64914 12.3868 9.59334 12.2944 9.55564C12.202 9.51794 12.1031 9.49904 12.0033 9.50004C11.9035 9.50104 11.8049 9.52194 11.7133 9.56154C11.6217 9.60114 11.539 9.65854 11.4698 9.73054L9.75006 11.4502V0.760832C9.75156 0.660452 9.73276 0.560802 9.69496 0.467792C9.65726 0.374772 9.60116 0.290292 9.53016 0.219352C9.45906 0.148412 9.37456 0.0924416 9.28146 0.0547816C9.18846 0.0171216 9.08876 -0.00147828 8.98836 9.17207e-05ZM0.738357 12.5C0.539617 12.5032 0.350227 12.585 0.211797 12.7277C0.0733772 12.8703 -0.00277279 13.062 7.72108e-05 13.2608V15.2608C7.72108e-05 16.7707 1.24019 18.0108 2.75008 18.0108H15.2501C16.76 18.0108 18.0001 16.7707 18.0001 15.2608V13.2608C18.0015 13.1614 17.9832 13.0627 17.9461 12.9705C17.909 12.8783 17.854 12.7943 17.7842 12.7236C17.7145 12.6528 17.6313 12.5966 17.5396 12.5582C17.4479 12.5199 17.3495 12.5001 17.2501 12.5001C17.1507 12.5001 17.0523 12.5199 16.9606 12.5582C16.8689 12.5966 16.7858 12.6528 16.716 12.7236C16.6462 12.7943 16.5912 12.8783 16.5541 12.9705C16.5171 13.0627 16.4987 13.1614 16.5001 13.2608V15.2608C16.5001 15.9599 15.9492 16.5108 15.2501 16.5108H2.75008C2.05096 16.5108 1.50008 15.9599 1.50008 15.2608V13.2608C1.50152 13.1604 1.48279 13.0608 1.44501 12.9677C1.40723 12.8747 1.35116 12.7903 1.28012 12.7193C1.20909 12.6484 1.12453 12.5924 1.03147 12.5547C0.938407 12.5171 0.838737 12.4985 0.738357 12.5Z" fill="black"/>
</svg>
